<?xml version="1.0" encoding="UTF-8"?>
<svg version="1.1" xmlns="http://www.w3.org/2000/svg" width="1080" height="1080">
<path d="M0 0 C1.01139038 -0.00039276 2.02278076 -0.00078552 3.06481934 -0.00119019 C48.62212131 0.01987377 48.62212131 0.01987377 58.125 3.1875 C54.01987744 64.76433839 35.01607359 127.02962003 10.125 183.1875 C9.45235107 184.72011475 9.45235107 184.72011475 8.76611328 186.28369141 C2.28100936 201.01237359 -4.90198752 215.2102441 -12.875 229.1875 C-13.64432861 230.54439941 -13.64432861 230.54439941 -14.42919922 231.92871094 C-30.61724054 260.34984675 -49.70033031 286.60591379 -71.69921875 310.79296875 C-73.17003127 312.41165471 -74.63075155 314.03955971 -76.08203125 315.67578125 C-83.2296962 323.72472795 -90.65389141 331.4404994 -98.84765625 338.43359375 C-100.25341577 339.64975179 -101.63494733 340.89426501 -102.99609375 342.16015625 C-110.82991674 349.43913849 -119.29495792 355.82522096 -127.875 362.1875 C-128.5438623 362.68652832 -129.21272461 363.18555664 -129.90185547 363.69970703 C-142.63797945 373.14521827 -156.15250183 381.26446062 -169.875 389.1875 C-170.64279785 389.63222656 -171.4105957 390.07695313 -172.20166016 390.53515625 C-233.80832485 425.79715276 -305.89082755 437.5636454 -375.875 439.1875 C-375.30156333 435.38380159 -374.24228499 432.75190026 -372.19921875 429.50390625 C-371.62864746 428.59141113 -371.05807617 427.67891602 -370.47021484 426.73876953 C-369.84066895 425.75247559 -369.21112305 424.76618164 -368.5625 423.75 C-367.90459473 422.70956543 -367.24668945 421.66913086 -366.56884766 420.59716797 C-353.93479996 400.73615287 -340.94089335 381.06748833 -326.875 362.1875 C-326.36533691 361.50059082 -325.85567383 360.81368164 -325.33056641 360.10595703 C-321.87077536 355.4470892 -318.38188187 350.81099481 -314.875 346.1875 C-314.45154297 345.62756348 -314.02808594 345.06762695 -313.59179688 344.49072266 C-304.35025102 332.28704899 -294.6890919 320.41972076 -284.75805664 308.77172852 C-281.91128294 305.42977328 -279.12926368 302.04341237 -276.375 298.625 C-272.24692681 293.54998529 -267.87154409 288.74734584 -263.42578125 283.953125 C-261.39098117 281.74694053 -259.39853762 279.52117739 -257.4375 277.25 C-253.48397017 272.6968827 -249.3861859 268.27834632 -245.28198242 263.86157227 C-243.17617619 261.59387331 -241.07787537 259.31976767 -238.98803711 257.03735352 C-228.96437232 246.13913254 -218.51219953 235.67037471 -208.03222656 225.21435547 C-205.487503 222.67538246 -202.94737254 220.13186856 -200.40849495 217.58705139 C-198.41985691 215.59477743 -196.42881608 213.60491842 -194.43706894 211.61575317 C-193.05111543 210.23077254 -191.66714208 208.84381124 -190.28323364 207.45678711 C-185.85331513 203.04319784 -181.3763355 198.75953928 -176.61056519 194.70898438 C-174.78295762 193.10681098 -173.07627923 191.42254372 -171.375 189.6875 C-168.43235676 186.69856799 -165.35144293 183.94097702 -162.17578125 181.203125 C-159.36726471 178.74269285 -156.6205632 176.21755722 -153.875 173.6875 C-149.26724971 169.44967872 -144.62056204 165.27050538 -139.875 161.1875 C-139.38306152 160.76388184 -138.89112305 160.34026367 -138.38427734 159.90380859 C-126.32729082 149.52703985 -114.22007582 139.22088412 -101.875 129.1875 C-100.61307495 128.15520006 -99.3513705 127.1226304 -98.08984375 126.08984375 C-90.43080678 119.82882621 -82.71699825 113.66698958 -74.83935547 107.68212891 C-72.48443368 105.89032786 -70.13487458 104.09158779 -67.78515625 102.29296875 C-49.83938859 88.56964082 -49.83938859 88.56964082 -40.875 82.1875 C-97.09169037 104.70231967 -146.09411782 139.93014281 -189.93652344 181.36669922 C-191.89605326 183.20727522 -193.87129437 185.02942765 -195.8515625 186.84765625 C-204.62947866 194.93311251 -212.90653205 203.35079628 -220.98095703 212.13623047 C-222.94229039 214.26037624 -224.9195218 216.3685637 -226.90234375 218.47265625 C-227.89995728 219.53141968 -227.89995728 219.53141968 -228.91772461 220.61157227 C-230.17453722 221.94457434 -231.43182099 223.27713245 -232.68969727 224.60913086 C-236.85889018 229.04504963 -240.89044024 233.58544999 -244.875 238.1875 C-245.36935547 238.75436523 -245.86371094 239.32123047 -246.37304688 239.90527344 C-252.30182717 246.70832517 -258.06742497 253.60310451 -263.59545898 260.73608398 C-266.63013838 264.64012021 -269.74808104 268.46155697 -272.91845703 272.25610352 C-280.36308391 281.1730117 -287.30769325 290.38233893 -294.125 299.78466797 C-295.86203987 302.16970513 -297.61514545 304.54191448 -299.375 306.91015625 C-312.47865849 324.54406223 -324.87496749 342.60015877 -337.0625 360.875 C-337.6138562 361.70149048 -338.1652124 362.52798096 -338.73327637 363.3795166 C-348.28366204 377.70616093 -357.72619223 392.10036551 -366.875 406.6875 C-368.36972266 409.05616322 -369.8659718 411.42385766 -371.36230469 413.79150391 C-372.39065843 415.42033922 -373.41728911 417.05026339 -374.44238281 418.68115234 C-375.95467813 421.08356034 -377.47619974 423.47987779 -379 425.875 C-379.46148437 426.61234375 -379.92296875 427.3496875 -380.3984375 428.109375 C-381.50386937 429.83744469 -382.68245112 431.51835901 -383.875 433.1875 C-384.535 433.1875 -385.195 433.1875 -385.875 433.1875 C-389.95741481 407.58906719 -394.02089807 382.06171858 -395.875 356.1875 C-395.9685376 354.88554688 -396.0620752 353.58359375 -396.15844727 352.2421875 C-396.88781826 341.43154657 -397.0765467 330.64562565 -397.0625 319.8125 C-397.06189575 318.94210083 -397.0612915 318.07170166 -397.06066895 317.17492676 C-396.93915372 252.25319374 -383.94581156 181.8767313 -341.875 130.1875 C-341.16085937 129.28386719 -340.44671875 128.38023437 -339.7109375 127.44921875 C-329.82005857 115.09435761 -319.01681943 103.36037574 -306.875 93.1875 C-306.37532715 92.76871582 -305.8756543 92.34993164 -305.36083984 91.91845703 C-233.68016978 32.24424654 -138.76622002 7.59703089 0 0 Z " fill="#FFFFFF" transform="translate(713.875,269.8125)"/>
<path d="M0 0 C52.8 0 105.6 0 160 0 C167.59 21.12 175.18 42.24 183 64 C188.61211307 79.38701479 188.61211307 79.38701479 194.26342773 94.75927734 C195 97 195 97 195 99 C188.58819676 100.23405254 182.16030677 101.29949977 175.703125 102.26171875 C95.1002213 114.33170359 16.80215819 139.79823421 -47 192 C-47.56783203 192.46341797 -48.13566406 192.92683594 -48.72070312 193.40429688 C-64.77129364 205.62127986 -64.77129364 205.62127986 -77 221 C-77.66 221 -78.32 221 -79 221 C-76.72964744 211.42135248 -73.30725842 202.28048913 -69.91030884 193.0602417 C-68.84458802 190.16744973 -67.78427595 187.27272417 -66.7253418 184.37744141 C-65.60768684 181.32168622 -64.48974417 178.26604041 -63.370224 175.21096802 C-59.83445168 165.56102341 -56.33530459 155.89802558 -52.84429932 146.23181152 C-51.08092656 141.34944388 -49.31573798 136.46773272 -47.55078125 131.5859375 C-47.00656525 130.08045349 -47.00656525 130.08045349 -46.45135498 128.54455566 C-42.25320422 116.93202669 -38.04855749 105.32185039 -33.84408569 93.71160889 C-27.09287219 75.06855349 -20.34232255 56.42525696 -13.59643555 37.78027344 C-12.87795011 35.79455952 -12.15936647 33.80888113 -11.44067383 31.82324219 C-10.44974857 29.08538912 -9.4592011 26.34739964 -8.46875 23.609375 C-8.18942627 22.83785095 -7.91010254 22.0663269 -7.62231445 21.27142334 C-5.06087286 14.18815681 -2.53342053 7.09357748 0 0 Z " fill="#FFFFFF" transform="translate(442,150)"/>
<path d="M0 0 C1.8399854 2.7599781 2.82173224 4.97282379 3.92919922 8.06738281 C4.30575653 9.11311462 4.68231384 10.15884644 5.07028198 11.23626709 C5.68131271 12.95236176 5.68131271 12.95236176 6.3046875 14.703125 C6.96566504 16.54326844 7.62664432 18.38341125 8.28769112 20.22352982 C8.99587365 22.19723024 9.70207415 24.17162972 10.40771484 26.14624023 C11.89134356 30.29755943 13.38055876 34.44685933 14.87109375 38.59570312 C15.24726271 39.64278946 15.24726271 39.64278946 15.63103104 40.71102905 C16.14075228 42.12981887 16.65049382 43.5486014 17.16025543 44.96737671 C17.93425159 47.12208082 18.70774124 49.27696622 19.48114014 51.43188477 C23.88361698 63.69533912 28.32981061 75.94265194 32.79165649 88.18463135 C40.46338853 109.23379474 48.09009391 130.29892393 55.6875 151.375 C55.91661072 152.01055817 56.14572144 152.64611633 56.3817749 153.30093384 C57.05599624 155.17130862 57.73014699 157.04170884 58.40429688 158.91210938 C58.83888214 160.11784607 59.27346741 161.32358276 59.72122192 162.56585693 C60.57225602 164.92843401 61.4225933 167.29126222 62.27218628 169.65435791 C64.38151013 175.52000838 66.50202303 181.38119696 68.64306641 187.23535156 C69.06393021 188.39080475 69.48479401 189.54625793 69.91841125 190.73672485 C70.71674294 192.92758425 71.51879041 195.11709437 72.32511902 197.30502319 C72.67778336 198.27509308 73.03044769 199.24516296 73.39379883 200.24462891 C73.86092033 201.51882187 73.86092033 201.51882187 74.33747864 202.8187561 C75 205 75 205 75 208 C27.15 208 -20.7 208 -70 208 C-76.4040625 189.128125 -76.4040625 189.128125 -82.9375 169.875 C-84.28577881 165.90968262 -85.63405762 161.94436523 -87.02319336 157.85888672 C-88.66906738 152.99829102 -88.66906738 152.99829102 -89.43946838 150.7192688 C-89.97605837 149.13478928 -90.51446852 147.55092543 -91.05433655 145.96755981 C-91.8738055 143.56298626 -92.68739776 141.15649538 -93.49975586 138.74951172 C-93.73973517 138.04973646 -93.97971449 137.3499612 -94.2269659 136.62898064 C-95.51899967 132.77795719 -96.60496314 129.05118929 -97 125 C-95.62890625 122.91015625 -95.62890625 122.91015625 -93.5625 121.0625 C-92.57443359 120.15177734 -92.57443359 120.15177734 -91.56640625 119.22265625 C-90.10906071 117.96051072 -88.64927943 116.70113163 -87.18188477 115.45068359 C-82.43828917 111.36998611 -78.05990312 107.09248316 -73.8125 102.5 C-73.16812988 101.80640381 -72.52375977 101.11280762 -71.85986328 100.39819336 C-60.51488902 88.1214995 -49.96147995 75.42426591 -40 62 C-39.45843262 61.27409668 -38.91686523 60.54819336 -38.35888672 59.80029297 C-26.72449268 44.15761349 -16.44359502 27.85808642 -6.91967773 10.85229492 C-6.44989502 10.01545166 -5.9801123 9.1786084 -5.49609375 8.31640625 C-4.88012329 7.20954468 -4.88012329 7.20954468 -4.25170898 6.08032227 C-2.96189093 3.93666327 -1.5338237 1.97460647 0 0 Z " fill="#FFFFFF" transform="translate(728,501)"/>
<path d="M0 0 C1.45651821 1.22778701 2.89398582 2.47849547 4.3125 3.75 C5.06273437 4.39582031 5.81296875 5.04164063 6.5859375 5.70703125 C22.41258347 20.26430459 28.20705818 41.78837707 29.5625 62.5859375 C29.97501003 85.53180786 23.31479696 107.79533953 7.4453125 124.75390625 C3.71198425 128.24791859 -0.34573958 131.06625812 -4.6875 133.75 C-5.29851562 134.13929688 -5.90953125 134.52859375 -6.5390625 134.9296875 C-21.57710479 143.47553532 -41.78815744 144.00253297 -58.20703125 139.921875 C-76.51558736 133.75737799 -88.87620285 123.08841075 -98 105.875 C-108.74465588 82.98679952 -109.4248434 56.29980158 -101.15234375 32.56640625 C-95.00336032 16.06255134 -83.57266725 2.04762549 -67.5625 -5.77734375 C-46.5687205 -14.48269703 -18.77295003 -13.98261106 0 0 Z M-80.6875 16.75 C-94.50133332 33.3912261 -97.90100001 53.74296646 -96.6875 74.75 C-95.29124231 88.89469749 -90.41046143 103.21871636 -80.6875 113.75 C-79.90375 114.61625 -79.12 115.4825 -78.3125 116.375 C-77.44625 117.15875 -76.58 117.9425 -75.6875 118.75 C-75.07648437 119.30429687 -74.46546875 119.85859375 -73.8359375 120.4296875 C-60.62932615 131.61928912 -45.20646378 132.6565285 -28.6875 131.75 C-15.4371976 130.05050469 -3.65410776 123.25605294 4.62890625 112.8359375 C17.9231317 94.88545601 21.83004427 73.51516241 18.80859375 51.59765625 C15.72480106 34.52225558 8.54010675 18.44798831 -5.9609375 8.1328125 C-30.29205878 -7.29480699 -60.80757751 -4.25135402 -80.6875 16.75 Z " fill="#FFFFFF" transform="translate(668.6875,774.25)"/>
<path d="M0 0 C0.33 0 0.66 0 1 0 C1.01458252 1.09836182 1.02916504 2.19672363 1.04418945 3.32836914 C1.65606901 46.33782689 4.60621991 88.72224864 12.0604248 131.12324524 C12.64118855 134.49140281 13 137.56868483 13 141 C-7.79 141 -28.58 141 -50 141 C-47.75019361 130.87587124 -47.75019361 130.87587124 -46.28613281 126.89746094 C-45.95606232 125.99162766 -45.62599182 125.08579437 -45.28591919 124.1525116 C-44.92859711 123.18952652 -44.57127502 122.22654144 -44.203125 121.234375 C-43.82155243 120.1913472 -43.43997986 119.1483194 -43.04684448 118.07368469 C-41.78623758 114.63059743 -40.51801272 111.19036594 -39.25 107.75 C-37.6722628 103.44644625 -36.0973918 99.14184603 -34.52266312 94.83719063 C-33.81375616 92.9000531 -33.10412339 90.96318264 -32.39437866 89.02635193 C-28.89849987 79.48221316 -25.43638094 69.92618483 -21.9921875 60.36328125 C-21.74557373 59.67862919 -21.49895996 58.99397713 -21.24487305 58.28857803 C-19.0665025 52.24008778 -16.89027117 46.19082858 -14.71496582 40.14123535 C-9.89198064 26.72947551 -5.06959453 13.32094837 0 0 Z " fill="#FFFFFF" transform="translate(291,568)"/>
<path d="M0 0 C2.19236434 2.24749149 4.07911469 4.50804068 6 7 C0.85714286 12.57142857 0.85714286 12.57142857 -3 13 C-3.45375 12.319375 -3.9075 11.63875 -4.375 10.9375 C-13.69100294 0.51244909 -26.74613619 -4.22301376 -40.40234375 -5.2578125 C-53.93967064 -5.6839613 -66.93692718 -3.22228378 -78 5 C-78.68191406 5.47824219 -79.36382812 5.95648437 -80.06640625 6.44921875 C-93.17407201 16.63266945 -99.32603698 33.48861864 -101.375 49.4375 C-103.48807783 69.49922928 -100.07231983 90.74255916 -87.640625 107.10546875 C-78.84521569 117.22565244 -68.45751047 124.007687 -55 126 C-39.50416197 127.01113333 -25.1376762 126.21039933 -12 117 C-11.43440872 116.64081482 -10.86881744 116.28162964 -10.28608704 115.91156006 C-7.38060911 113.82263853 -5.34144953 112.20555798 -4.34405518 108.68405151 C-4.09492087 105.88734247 -4.05618155 103.15891829 -4.09765625 100.3515625 C-4.08504761 99.45332764 -4.07243896 98.55509277 -4.05944824 97.62963867 C-4.02272148 94.2949612 -4.04612918 90.95983953 -4.0625 87.625 C-4.041875 80.15875 -4.02125 72.6925 -4 65 C-21.82 65 -39.64 65 -58 65 C-58 62.03 -58 59.06 -58 56 C-37.21 56 -16.42 56 5 56 C5.165 65.735 5.33 75.47 5.5 85.5 C5.57283203 88.55958984 5.64566406 91.61917969 5.72070312 94.77148438 C5.74408052 97.21221107 5.76446334 99.65296908 5.78125 102.09375 C5.82217773 103.34833008 5.86310547 104.60291016 5.90527344 105.89550781 C5.91028087 112.19986468 5.69973965 116.09342113 1.16503906 120.71972656 C-0.94329834 122.50543213 -0.94329834 122.50543213 -3 124 C-3.87280609 124.63563873 -3.87280609 124.63563873 -4.76324463 125.28411865 C-21.65693612 136.55424682 -41.48931601 139.59681935 -61.3125 135.9375 C-77.95646595 131.73291256 -90.66334043 122.01499994 -100.2578125 107.921875 C-112.84278519 86.81523918 -115.74639843 60.10324787 -109.9753418 36.33959961 C-105.04468897 18.54139492 -95.46049318 3.4699519 -80 -7 C-54.55830476 -20.997438 -22.37066537 -19.09251634 0 0 Z " fill="#FFFFFF" transform="translate(419,779)"/>
<path d="M0 0 C2.57161458 0.03255208 5.14322917 0.06510417 7.71484375 0.09765625 C11.24697987 6.96071764 14.43418252 13.90975012 17.42578125 21.0234375 C17.8667363 22.06391235 18.30769135 23.10438721 18.76200867 24.1763916 C19.71168492 26.41747916 20.66004587 28.65912447 21.60720825 30.90127563 C24.16268236 36.94919069 26.72913795 42.99244024 29.296875 49.03515625 C29.56090811 49.65672922 29.82494122 50.27830219 30.09697533 50.91871071 C35.91651204 64.61466064 41.8391237 78.26528306 47.77734375 91.91015625 C61.02786899 122.38583565 61.02786899 122.38583565 66.23703003 134.5821228 C66.83940776 135.99083072 67.44362748 137.39875264 68.04983521 138.80581665 C68.85878402 140.68469983 69.6601127 142.56685858 70.4609375 144.44921875 C70.90107178 145.47869629 71.34120605 146.50817383 71.79467773 147.56884766 C72.71484375 150.09765625 72.71484375 150.09765625 72.71484375 153.09765625 C69.41484375 153.09765625 66.11484375 153.09765625 62.71484375 153.09765625 C56.21491286 139.65468213 50.4512496 125.89868449 44.6305542 112.1519165 C42.78638766 107.79808913 40.93806626 103.44602377 39.09005737 99.09382629 C38.1108863 96.78715889 37.13260489 94.48011358 36.15530396 92.1726532 C35.71749603 91.14009903 35.27968811 90.10754486 34.82861328 89.04370117 C34.4433548 88.13408127 34.05809631 87.22446136 33.66116333 86.28727722 C33.05026326 84.8737594 32.40349918 83.47496712 31.71484375 82.09765625 C12.57484375 82.09765625 -6.56515625 82.09765625 -26.28515625 82.09765625 C-33.54007708 99.14805784 -33.54007708 99.14805784 -40.79321289 116.19921875 C-49.38472033 136.3895896 -49.38472033 136.3895896 -53.46875 145.78515625 C-53.88822655 146.75606201 -53.88822655 146.75606201 -54.31617737 147.74658203 C-56.16660576 151.97910576 -56.16660576 151.97910576 -57.28515625 153.09765625 C-58.97124591 153.16971136 -60.66016284 153.18151693 -62.34765625 153.16015625 C-63.26675781 153.15113281 -64.18585937 153.14210938 -65.1328125 153.1328125 C-66.19822266 153.11541016 -66.19822266 153.11541016 -67.28515625 153.09765625 C-66.65021075 149.26196472 -65.51744506 145.99515043 -63.96899414 142.43359375 C-63.49046494 141.3257251 -63.01193573 140.21785645 -62.51890564 139.07641602 C-61.9996199 137.88717529 -61.48033417 136.69793457 -60.9453125 135.47265625 C-60.4010177 134.21628845 -59.85724892 132.95969265 -59.3139801 131.70288086 C-58.19123502 129.10655144 -57.0662833 126.51119535 -55.9397583 123.91650391 C-53.4486528 118.17365034 -50.99142142 112.41631118 -48.53125 106.66015625 C-47.5744154 104.42529014 -46.61738228 102.19050902 -45.66015625 99.95581055 C-45.180625 98.83620941 -44.70109375 97.71660828 -44.20703125 96.56307983 C-43.7171875 95.41949005 -43.22734375 94.27590027 -42.72265625 93.09765625 C-41.95719482 91.31060776 -41.95719482 91.31060776 -41.17626953 89.48745728 C-33.32719156 71.16609688 -25.44910901 52.85747116 -17.52514648 34.56835938 C-16.8095863 32.91542811 -16.09416919 31.26243491 -15.37890625 29.609375 C-15.03984756 28.82617889 -14.70078888 28.04298279 -14.35145569 27.23605347 C-12.54970817 23.06349718 -10.77035175 18.88250635 -9.015625 14.68994141 C-8.64683228 13.80885208 -8.27803955 12.92776276 -7.89807129 12.01997375 C-7.19115966 10.32711745 -6.48655118 8.63329705 -5.7845459 6.93840027 C-2.94299608 0.12576906 -2.94299608 0.12576906 0 0 Z M2.71484375 14.09765625 C-1.56555755 22.23923131 -5.19261074 30.63653987 -8.79638672 39.09155273 C-9.77945495 41.39678705 -10.76827184 43.69949091 -11.7578125 46.00195312 C-12.40268926 47.50896678 -13.04723124 49.01612375 -13.69140625 50.5234375 C-13.97802124 51.19055252 -14.26463623 51.85766754 -14.55993652 52.54499817 C-17.30794821 59.00814027 -19.75821933 65.52762026 -22.28515625 72.09765625 C-5.78515625 72.09765625 10.71484375 72.09765625 27.71484375 72.09765625 C25.27742598 64.72616382 25.27742598 64.72616382 22.4465332 57.57788086 C22.02632401 56.59754379 21.60611481 55.61720673 21.173172 54.60716248 C20.50737373 53.06911705 20.50737373 53.06911705 19.828125 51.5 C19.3662529 50.42512833 18.9043808 49.35025665 18.42851257 48.24281311 C16.96487497 44.83877748 15.49619413 41.43694533 14.02734375 38.03515625 C13.02896184 35.71563897 12.03091155 33.39597892 11.03320312 31.07617188 C8.59758349 25.41500959 6.15782898 19.75564363 3.71484375 14.09765625 C3.38484375 14.09765625 3.05484375 14.09765625 2.71484375 14.09765625 Z " fill="#FFFFFF" transform="translate(769.28515625,762.90234375)"/>
<path d="M0 0 C2.57161458 0.03255208 5.14322917 0.06510417 7.71484375 0.09765625 C12.08144787 9.32021826 16.28978417 18.59282956 20.28106689 27.98501587 C21.19594195 30.13774412 22.11399081 32.28909726 23.03271484 34.44018555 C24.44801502 37.75433171 25.86221239 41.06894575 27.27587891 44.38378906 C31.85488184 55.11604179 36.45320986 65.84003902 41.04919052 76.56502914 C41.8392469 78.40876339 42.62918557 80.25254803 43.4190979 82.09634399 C50.28677098 98.12536868 57.17413223 114.14528906 64.12890625 130.13671875 C64.75200684 131.5757959 64.75200684 131.5757959 65.38769531 133.04394531 C66.37699239 135.32027495 67.37458705 137.59218635 68.37792969 139.86230469 C68.93568287 141.13600816 69.49330251 142.40977013 70.05078125 143.68359375 C70.55915527 144.83649902 71.0675293 145.9894043 71.59130859 147.17724609 C72.71484375 150.09765625 72.71484375 150.09765625 72.71484375 153.09765625 C69.41484375 153.09765625 66.11484375 153.09765625 62.71484375 153.09765625 C58.92286988 145.70172258 55.53431135 138.2094309 52.30078125 130.5546875 C51.80446198 129.38685226 51.3081427 128.21901703 50.79678345 127.01579285 C49.49040297 123.94037528 48.18673918 120.86383668 46.88446045 117.78668213 C45.56193591 114.66347628 44.23592808 111.54175032 42.91015625 108.41992188 C40.57576867 102.92182662 38.24417756 97.4225551 35.91513062 91.92219543 C34.5221899 88.64429934 33.11782076 85.37126927 31.71484375 82.09765625 C12.57484375 82.09765625 -6.56515625 82.09765625 -26.28515625 82.09765625 C-27.94804687 85.97773437 -29.6109375 89.8578125 -31.32421875 93.85546875 C-32.95263672 97.65511068 -34.58105469 101.4547526 -36.20947266 105.25439453 C-36.490448 105.91000366 -36.77142334 106.56561279 -37.06091309 107.24108887 C-38.44946289 110.48103841 -39.8380127 113.72098796 -41.2265625 116.9609375 C-41.49741858 117.59293501 -41.76827465 118.22493252 -42.04733849 118.87608147 C-42.44994613 119.8154993 -42.44994613 119.8154993 -42.86068726 120.77389526 C-43.12562359 121.39208004 -43.39055992 122.01026482 -43.66352463 122.64718246 C-47.40087891 131.36767578 -47.40087891 131.36767578 -48.82110596 134.67633057 C-49.86837329 137.12367997 -50.91066311 139.57278127 -51.94793701 142.02435303 C-52.22195532 142.6697447 -52.49597363 143.31513638 -52.77829552 143.98008537 C-53.54717489 145.79146009 -54.31373652 147.60381812 -55.08016968 149.41622925 C-56.28515625 152.09765625 -56.28515625 152.09765625 -57.28515625 153.09765625 C-58.97124591 153.16971136 -60.66016284 153.18151693 -62.34765625 153.16015625 C-63.26675781 153.15113281 -64.18585938 153.14210938 -65.1328125 153.1328125 C-66.19822266 153.11541016 -66.19822266 153.11541016 -67.28515625 153.09765625 C-66.67946417 149.59172361 -65.76066017 146.53923808 -64.36181641 143.27124023 C-63.76207001 141.86053253 -63.76207001 141.86053253 -63.15020752 140.42132568 C-62.71263123 139.40572571 -62.27505493 138.39012573 -61.82421875 137.34375 C-61.36698425 136.2723175 -60.90974976 135.20088501 -60.43865967 134.09698486 C-58.93385261 130.57434678 -57.42210533 127.05473414 -55.91015625 123.53515625 C-55.12241494 121.69440506 -54.33467651 119.85365259 -53.54744148 118.01268482 C-46.2036539 100.83912033 -38.81378937 83.68522961 -31.39160156 66.54541016 C-27.06166002 56.54419529 -22.75484952 46.53348229 -18.47265625 36.51171875 C-17.98648834 35.37448868 -17.50032043 34.23725861 -16.99942017 33.06556702 C-14.62079255 27.50096086 -12.24473076 21.93528103 -9.87255859 16.36791992 C-9.0180019 14.3676338 -8.16335192 12.36738753 -7.30859375 10.3671875 C-6.91478516 9.44036163 -6.52097656 8.51353577 -6.11523438 7.55862427 C-5.7554248 6.71790375 -5.39561523 5.87718323 -5.02490234 5.01098633 C-4.7113681 4.27544022 -4.39783386 3.5398941 -4.07479858 2.78205872 C-2.91749643 0.31339345 -2.81764453 0.12041216 0 0 Z M1.71484375 15.09765625 C1.47316467 15.65396225 1.2314856 16.21026825 0.98248291 16.78343201 C-1.54801071 22.60801474 -4.07903232 28.43236783 -6.61035156 34.2565918 C-7.55319357 36.42613006 -8.49590392 38.59572555 -9.43847656 40.76538086 C-10.79847607 43.89582369 -12.15895928 47.02605594 -13.51953125 50.15625 C-13.93636169 51.11599228 -14.35319214 52.07573456 -14.78265381 53.06455994 C-15.38282318 54.44497215 -15.38282318 54.44497215 -15.99511719 55.85327148 C-16.56740051 57.17100052 -16.56740051 57.17100052 -17.15124512 58.51535034 C-18.59288293 61.79845581 -20.07888249 65.06087919 -21.57769775 68.31825256 C-22.40830715 70.08825901 -22.40830715 70.08825901 -22.28515625 72.09765625 C-5.78515625 72.09765625 10.71484375 72.09765625 27.71484375 72.09765625 C25.49061003 65.25246848 25.49061003 65.25246848 22.87719727 58.63867188 C22.54998184 57.88759155 22.22276642 57.13651123 21.88563538 56.3626709 C21.5418132 55.58427856 21.19799103 54.80588623 20.84375 54.00390625 C20.48014877 53.17234009 20.11654755 52.34077393 19.7419281 51.48400879 C18.59073109 48.8536007 17.43411961 46.22561495 16.27734375 43.59765625 C15.50550469 41.83609287 14.73401745 40.07437528 13.96289062 38.3125 C10.56892 30.56435863 7.15551863 22.82517793 3.71484375 15.09765625 C3.05484375 15.09765625 2.39484375 15.09765625 1.71484375 15.09765625 Z " fill="#FFFFFF" transform="translate(228.28515625,762.90234375)"/>
<path d="M0 0 C7.1675518 -0.04980926 14.3350006 -0.08591192 21.50268555 -0.10986328 C23.93597165 -0.11985889 26.36924594 -0.13345985 28.80249023 -0.15087891 C32.3201796 -0.17541253 35.83770879 -0.18654785 39.35546875 -0.1953125 C40.42580856 -0.20563507 41.49614838 -0.21595764 42.59892273 -0.22659302 C59.53644673 -0.229053 74.39026202 2.60866515 86.75 14.6875 C94.48903068 24.83190508 94.88791125 38.72588262 93.3125 50.875 C91.54780951 60.41134064 87.94185982 68.51983769 80.046875 74.47265625 C74.89060682 77.84784706 70.26389539 80 64 80 C64.58265625 80.66 65.1653125 81.32 65.765625 82 C78.70665851 97.62690839 86.09903839 116.97282752 94.25 135.375 C94.58840912 136.13831635 94.92681824 136.90163269 95.27548218 137.68807983 C96.23558403 139.86018985 97.18948617 142.0348899 98.140625 144.2109375 C98.43062881 144.86817307 98.72063263 145.52540863 99.01942444 146.20256042 C101 150.76744856 101 150.76744856 101 153 C97.37 153 93.74 153 90 153 C89.35937622 151.5291394 89.35937622 151.5291394 88.70581055 150.02856445 C78.81931349 127.15645618 78.81931349 127.15645618 67.9375 104.75 C67.53426514 103.95634033 67.13103027 103.16268066 66.71557617 102.3449707 C62.37655045 94.18132605 57.00370398 87.02244837 48 84 C38.14463569 81.36383295 27.93479237 81.56110362 17.8125 81.375 C16.08006031 81.33673554 14.34763793 81.29767919 12.61523438 81.2578125 C8.41029995 81.1627483 4.20527698 81.07838889 0 81 C0 78.03 0 75.06 0 72 C0.96814133 71.99120064 0.96814133 71.99120064 1.95584106 71.98222351 C8.73824991 71.91776072 15.52020718 71.83321201 22.30224609 71.73754883 C24.82562262 71.7045119 27.34906927 71.67641559 29.87255859 71.65356445 C55.08787904 72.51890609 55.08787904 72.51890609 77 62 C83.23163866 54.39347259 83.78682132 44.39343604 83 35 C81.59797057 27.7135405 79.1991633 21.60397012 73.3125 16.8125 C65.74163454 12.66995097 57.88138414 10.93357071 49.27001953 10.79467773 C48.16933136 10.77473251 47.06864319 10.75478729 45.93460083 10.73423767 C44.76251068 10.71752518 43.59042053 10.70081268 42.3828125 10.68359375 C41.17051971 10.66281265 39.95822693 10.64203156 38.709198 10.62062073 C34.8478547 10.55539018 30.98644509 10.49636349 27.125 10.4375 C24.50259739 10.39428959 21.88020141 10.3506745 19.2578125 10.30664062 C12.83860913 10.19973593 6.41933924 10.09839401 0 10 C0 6.7 0 3.4 0 0 Z " fill="#FFFFFF" transform="translate(451,763)"/>
<path d="M0 0 C3.3 0 6.6 0 10 0 C10 50.49 10 100.98 10 153 C6.7 153 3.4 153 0 153 C0 102.51 0 52.02 0 0 Z " fill="#FFFFFF" transform="translate(863,763)"/>
</svg>
